<svg width="15" height="9" viewBox="0 0 15 9" fill="none" xmlns="http://www.w3.org/2000/svg">
<path d="M12.7229 0.371767C12.9776 0.129195 13.3171 -0.00418799 13.6688 0.000100412C14.0205 0.00438881 14.3566 0.146009 14.6053 0.394719C14.854 0.643429 14.9956 0.97952 14.9999 1.33122C15.0042 1.68293 14.8708 2.02237 14.6282 2.27707L8.84564 8.05966C8.66888 8.23664 8.45896 8.37704 8.22789 8.47284C7.99682 8.56863 7.74914 8.61794 7.499 8.61794C7.24886 8.61794 7.00118 8.56863 6.77011 8.47284C6.53904 8.37705 6.32912 8.23664 6.15236 8.05966L0.371786 2.27707C0.129214 2.02237 -0.00416864 1.68293 0.000119582 1.33122C0.0044078 0.979521 0.146027 0.643431 0.394737 0.39472C0.643448 0.14601 0.979539 0.00438995 1.33124 0.000101491C1.68295 -0.00418697 2.02239 0.129196 2.27709 0.371768L7.50001 5.59065L12.7229 0.371767Z" fill="#D2D3E0"/>
</svg>
