<svg width="132" height="24" viewBox="0 0 132 24" fill="none" xmlns="http://www.w3.org/2000/svg">
<path fill-rule="evenodd" clip-rule="evenodd" d="M66.0925 12.2528C66.0925 11.4878 65.9881 11.0705 65.6055 11.0705C65.188 11.0705 64.527 11.453 63.5877 12.3571C62.1266 13.887 60.5611 16.6688 59.274 19.3114C59.3435 20.3198 59.9349 21.363 60.6307 21.363C61.6048 21.363 62.9615 20.285 64.701 16.7383C65.7098 14.7563 66.0925 13.2611 66.0925 12.2528ZM69.0495 12.6353C69.0495 14.0261 68.6669 15.8343 67.7971 17.7119C66.1621 21.3282 63.9704 23.345 61.8135 23.345C60.1437 23.345 58.9609 22.6495 58.2651 21.5021L57.5693 23.032C57.2562 23.6927 56.8388 23.797 56.3865 23.2059C56.1766 22.9174 55.9914 22.6041 55.8814 22.2065C54.8873 23.0289 53.6864 23.5884 52.5171 23.5884C50.7777 23.5884 49.7688 22.6843 49.4905 21.3977C48.4816 22.3714 46.9161 23.4493 45.5246 23.4493C43.4721 23.4493 42.3589 21.9541 42.3589 19.9026C42.3589 18.4074 42.985 16.4602 44.2374 14.7216C47.0205 10.7228 49.8732 9.08854 51.6474 9.08854C52.8998 9.08854 53.6651 9.71443 53.9782 10.6185L54.6392 9.54057C55.0567 8.84514 55.6481 8.81037 56.0655 9.29717C56.6569 9.99261 56.97 11.5226 56.0655 13.3307C55.7938 13.9052 55.34 14.6493 54.8379 15.4722C53.669 17.3886 52.2388 19.7332 52.2388 21.363C52.2388 21.8845 52.3779 22.1975 52.7258 22.1975C53.9738 22.1975 55.7054 19.8497 56.8535 17.5968C58.7832 13.2487 63.6393 4.29172 66.1621 0.569458C66.6839 -0.195518 67.171 -0.195518 67.6232 0.604232C67.8667 1.02149 67.9711 1.5083 67.9711 2.06465C67.9711 3.00348 67.5884 4.35958 66.7535 5.85477C66.5164 6.28138 66.2074 6.78697 65.8462 7.37806C65.4125 8.08777 64.9035 8.92075 64.3531 9.88829C64.9793 9.54057 65.7446 9.2624 66.3012 9.2624C68.2146 9.2624 69.0495 10.6533 69.0495 12.6353ZM74.4524 17.8859C74.4524 20.146 74.1393 21.8846 73.4087 21.8846C72.6434 21.8846 71.9128 20.6676 71.4953 19.0333C72.539 17.5382 73.5131 16.043 74.348 14.7216C74.4176 15.6605 74.4524 16.7732 74.4524 17.8859ZM69.7559 15.8343C68.9906 16.495 68.6427 17.5034 68.6427 18.5465C68.6427 19.3463 68.8514 20.1808 69.2341 20.8415C70.4169 23.0321 72.5042 23.5884 74.5915 23.5189C77.2007 23.4146 79.6359 22.0933 80.9578 19.6592C81.584 18.5813 81.4797 17.6077 81.3057 17.26C81.0622 16.7036 80.5404 16.4602 80.2273 17.26C79.6011 18.9638 78.627 20.1113 77.2007 21.0849C77.5833 20.3199 77.7573 19.3463 77.7921 18.477C77.8274 17.5245 77.7284 16.4736 77.6223 15.347L77.6223 15.3469C77.5192 14.2526 77.4094 13.0868 77.4094 11.8704C77.4094 11.4183 77.4442 10.8272 77.479 10.4099C78.5574 8.63659 78.3487 7.87161 77.4094 7.87161C76.8876 7.87161 76.2614 8.11501 75.7048 8.60181C74.9046 9.26248 74.4872 10.0622 74.348 11.314C73.4435 12.8092 72.2259 14.6173 71.0779 16.2516C70.9735 15.4171 70.4517 15.2432 69.7559 15.8343ZM107.709 12.1484C107.709 12.6005 107.57 13.435 107.222 14.2347C106.839 13.7827 106.665 12.8786 106.665 12.2527C106.665 11.6964 106.978 11.4182 107.187 11.4182C107.431 11.4182 107.709 11.6269 107.709 12.1484ZM131.852 17.538C131.504 17.0165 131.017 16.8426 130.634 17.538C129.382 19.9025 127.573 22.1279 126.321 22.1279C125.764 22.1279 125.416 21.6063 125.416 20.8066C125.416 20.2502 125.59 19.5896 125.903 18.9637C126.39 17.9205 126.843 17.1556 127.33 16.4601C127.452 16.2542 127.575 16.0483 127.697 15.8448C128.235 14.9487 128.744 14.0996 128.999 13.5045C129.278 12.8786 129.382 12.218 129.382 11.6616C129.382 10.5489 128.86 9.57532 127.851 9.54055C126.843 9.50577 124.894 10.7228 123.398 12.0093C123.398 10.5837 122.703 9.29714 121.555 9.29714C120.407 9.29714 118.598 10.5489 117.032 12.0789C117.102 11.6964 117.137 11.4182 117.137 11.1053C117.137 10.5837 116.963 10.0274 116.684 9.54055C116.302 8.94943 115.71 8.9842 115.328 9.54055C113.727 12.0093 111.814 14.4434 109.97 14.7215C109.97 12.5657 109.448 11.8703 108.265 10.5489C107.5 9.54055 106.909 9.29714 105.656 9.29714C103.43 9.29714 101.273 11.4878 99.951 13.8175C99.2438 15.0217 98.7535 16.3049 98.5544 17.5332C97.1508 19.5983 94.7972 22.162 92.2437 22.128C91.3044 22.0932 90.6782 21.1544 90.6782 19.6244C90.6782 18.5813 91.0261 17.1556 91.7219 15.73C93.1134 12.9135 95.3747 10.6533 95.7921 11.001C95.9313 11.1401 95.6878 11.766 95.3399 12.4615C94.7137 13.8871 94.5397 14.5825 94.5397 15.0346C94.5397 15.9734 95.1311 16.6341 95.7573 17.0166C96.4531 17.3643 96.7662 17.2947 97.0097 16.6341C97.1489 16.2516 97.3576 15.73 97.6359 15.2084C98.2969 13.8523 98.8535 12.5658 98.3317 11.4183C97.7751 10.3752 96.3139 9.19292 95.0268 9.19292C93.009 9.19292 90.2608 11.0706 88.4865 14.6521C87.756 16.043 87.4081 17.4338 87.4081 18.6856C87.4081 21.4673 89.1823 23.5189 92.3828 23.4841C94.7797 23.4534 97.258 22.1204 98.7149 20.3719C98.871 20.8473 99.0975 21.2985 99.3944 21.7107C100.368 23.032 101.656 23.4492 102.769 23.4492C106.248 23.4492 108.822 19.4505 109.692 16.0081C110.422 16.0429 111.118 15.869 111.744 15.6256C110.909 17.2251 110.248 18.7203 109.97 19.5896C109.761 20.285 109.657 20.8761 109.657 21.4325C109.657 22.2322 109.935 22.8581 110.457 23.2754C111.049 23.7274 111.431 23.6231 111.675 23.1015C113.031 19.8678 114.667 16.7383 116.545 14.6868C118.632 12.3918 120.024 11.4878 120.268 11.5921C120.443 11.6798 119.881 12.5541 119.118 13.7396C118.974 13.9641 118.822 14.1998 118.667 14.4434C117.728 15.9385 116.58 17.7815 116.093 19.068C115.675 20.1112 115.501 21.05 115.501 21.6411C115.501 22.5452 115.815 23.1363 116.197 23.5188C116.684 24.0056 117.345 23.797 117.589 23.2406C119.05 20.1807 120.72 16.7731 123.398 14.1304C125.381 12.1137 126.321 11.6269 126.495 11.6616C126.592 11.694 125.664 13.0826 125.254 13.695L125.173 13.8175C124.303 15.1736 123.259 16.8774 122.668 18.1987C122.285 18.9985 122.146 19.7634 122.146 20.4241C122.146 22.267 123.433 23.5536 125.764 23.5883C127.851 23.6231 130.669 21.815 131.643 19.8678C132.096 18.9985 132.061 17.8162 131.852 17.538ZM101.934 21.6759C101.447 21.6759 101.203 21.1543 101.203 20.1459C101.203 18.8246 101.69 16.9469 102.63 15.3474C103.256 14.2695 103.882 13.435 104.647 12.67C104.926 13.7132 105.761 14.6868 106.735 15.2779C106.491 16.1819 106.109 17.1208 105.587 18.0596C104.3 20.3893 102.769 21.6759 101.934 21.6759ZM82.3757 23.5536C81.5408 23.2406 81.2277 22.0932 81.6452 21.2239C82.1322 20.146 83.2107 19.5896 84.0804 19.9026C84.9153 20.1807 85.1936 21.1891 84.7761 22.1975C84.3587 23.2406 83.2106 23.8665 82.3757 23.5536ZM50.4298 16.8774C48.7252 19.7982 47.1249 21.9193 45.9769 21.9193C45.629 21.9193 45.4898 21.5021 45.4898 20.8762C45.4898 19.7635 46.0812 17.9206 47.1249 16.2863C48.8991 13.435 51.2995 11.2444 51.9953 11.2444C52.3432 11.2444 52.4127 11.4878 52.4127 11.9051C52.4127 12.8091 51.7865 14.5129 50.4298 16.8774ZM35.8047 21.1891C35.8047 20.7718 35.8743 20.2502 36.0135 19.7982C36.8832 16.9121 40.3968 9.85347 43.4582 5.12451L43.3603 5.13759C42.8752 5.20251 42.4188 5.2636 41.9623 5.2636C39.701 5.2636 38.2051 4.46385 37.8225 3.10775C37.7181 2.65571 37.9964 2.44708 38.4834 2.44708C40.1496 2.44708 42.5854 2.16256 44.7752 1.90678C46.5631 1.69793 48.187 1.50825 49.0939 1.50825C50.6942 1.50825 52.1553 1.92551 52.6772 3.38592C52.8511 3.80318 52.712 4.22044 51.9118 4.1509C50.4159 3.97704 48.3982 4.28999 46.5196 4.60293C46.5544 5.85472 45.5455 7.87148 44.0496 10.4794C42.2406 13.7479 39.7358 18.3725 37.7181 22.9276C37.4398 23.5535 37.0223 23.5883 36.5353 23.1015C36.0135 22.6147 35.8047 22.0584 35.8047 21.1891ZM29.0642 17.8859C29.0642 20.146 28.7511 21.8846 28.0205 21.8846C27.2552 21.8846 26.5246 20.6676 26.1072 19.0333C27.1508 17.5382 28.1249 16.043 28.9598 14.7216C29.0294 15.6605 29.0642 16.7732 29.0642 17.8859ZM24.3677 15.8343C23.6024 16.495 23.2545 17.5034 23.2545 18.5465C23.2545 18.7699 23.2708 18.9959 23.3026 19.2202C22.7694 19.9409 22.1129 20.5401 21.3148 21.0849C21.6975 20.3199 21.8714 19.3463 21.9062 18.477C21.9415 17.5245 21.8425 16.4736 21.7364 15.347C21.6333 14.2527 21.5235 13.0868 21.5235 11.8704C21.5235 11.4183 21.5583 10.8272 21.5931 10.4099C22.6715 8.63659 22.4628 7.87161 21.5235 7.87161C21.0017 7.87161 20.3755 8.11501 19.8189 8.60181C19.0187 9.26248 18.6013 10.0622 18.4621 11.314C17.5576 12.8092 16.34 14.6173 15.192 16.2516C15.0876 15.4171 14.5658 15.2432 13.87 15.8343C13.1047 16.495 12.7568 17.5034 12.7568 18.5465C12.7568 19.3463 12.9655 20.1808 13.3482 20.8415C14.531 23.0321 16.6183 23.5884 18.7056 23.5189C20.7256 23.4381 22.6412 22.628 24.0168 21.1368C25.223 23.0825 27.2132 23.5852 29.2034 23.5189C31.8125 23.4146 34.2477 22.0933 35.5697 19.6592C36.1958 18.5813 36.0915 17.6077 35.9175 17.26C35.674 16.7036 35.1522 16.4602 34.8391 17.26C34.2129 18.9638 33.2388 20.1113 31.8125 21.0849C32.1952 20.3199 32.3691 19.3463 32.4039 18.477C32.4392 17.5245 32.3402 16.4736 32.2341 15.347C32.131 14.2527 32.0212 13.0868 32.0212 11.8704C32.0212 11.4183 32.056 10.8272 32.0908 10.4099C33.1692 8.63659 32.9605 7.87161 32.0212 7.87161C31.4994 7.87161 30.8732 8.11501 30.3166 8.60181C29.5164 9.26248 29.099 10.0622 28.9598 11.314C28.0553 12.8092 26.8377 14.6173 25.6897 16.2516C25.5853 15.4171 25.0635 15.2432 24.3677 15.8343ZM17.5228 21.8846C18.2534 21.8846 18.5665 20.146 18.5665 17.8859C18.5665 16.7732 18.5317 15.6605 18.4621 14.7216C17.6272 16.043 16.6531 17.5382 15.6095 19.0333C16.0269 20.6676 16.7575 21.8846 17.5228 21.8846ZM9.84516 23.3101C10.2626 23.8665 10.6453 23.7969 11.028 23.2058C11.2367 22.8581 11.3759 22.4408 11.3759 22.0236C11.3759 21.4672 11.2019 20.8066 10.8888 20.2154C10.2278 18.9289 9.04502 17.2598 7.79263 15.7647C11.5846 14.7911 15.1678 12.67 16.942 10.2707C18.2292 8.49737 18.9598 6.51538 18.0205 4.18567C17.1508 1.99505 15.4461 1.23007 13.6023 1.29961C12.3151 1.36916 11.0975 1.71688 9.77558 2.13414C8.52319 2.5514 7.20123 2.93389 5.80969 3.14252C5.07913 3.24683 4.90518 3.52501 5.18349 4.01181C5.60096 4.74202 6.088 5.22882 7.23602 5.43745C4.17463 10.2012 1.11323 16.5296 0.24352 19.5548C0.0695771 20.1807 0 20.8066 0 21.2934C0 22.1627 0.278308 22.719 0.660982 23.1363C1.18281 23.6579 1.56548 23.5883 1.809 22.9276C2.85266 20.3545 3.75716 18.3725 4.62688 16.6687C5.937 18.1419 7.49381 20.2007 9.47152 22.8161C9.59442 22.9786 9.71896 23.1433 9.84516 23.3101ZM10.1583 5.22882L11.515 4.77679C12.6282 4.3943 13.9502 3.94227 14.7503 3.94227C15.2722 3.94227 15.6548 4.11612 15.8636 4.67247C16.7681 6.96741 13.3588 11.5573 6.40109 13.3306C6.51226 13.1393 6.6311 12.9359 6.75665 12.721C7.33828 11.7254 8.06375 10.4837 8.83629 9.05372C9.706 7.41944 10.1235 6.20243 10.1583 5.22882Z" fill="#EEEFFC"/>
</svg>
