<svg width="59" height="52" viewBox="0 0 59 52" fill="none" xmlns="http://www.w3.org/2000/svg">
<path fill-rule="evenodd" clip-rule="evenodd" d="M1.23724 17.6057L0.19118 13.8086C-0.587718 10.93 1.08229 7.9579 3.9474 7.12452L20.5284 2.53255L1.23724 17.6057ZM57.9589 18.7003L40.6658 49.2738L40.6637 49.2755C39.1823 51.866 35.8812 52.7674 33.2885 51.2888L14.4855 40.6621C13.8658 40.3041 13.3203 39.8309 12.8787 39.2679C12.2299 38.4261 11.8432 37.4121 11.7669 36.3523C11.6905 35.2924 11.9278 34.2335 12.4493 33.3075L29.7407 2.73152C30.099 2.07895 30.597 1.51349 31.1991 1.07551C32.0402 0.448294 33.0453 0.0785626 34.0925 0.011191C35.1397 -0.0561806 36.184 0.181704 37.0985 0.695976L55.9241 11.3449C58.5158 12.8162 59.4264 16.107 57.9589 18.7003ZM32.883 3.2319C31.7029 4.15384 31.4941 5.85777 32.4168 7.03701C32.861 7.60169 33.5108 7.96768 34.2241 8.055C34.9374 8.14232 35.6564 7.94387 36.2238 7.50301C36.7904 7.06024 37.1579 6.41062 37.2454 5.69703C37.3329 4.98345 37.1332 4.26436 36.6903 3.69791C35.7676 2.51866 34.0632 2.30997 32.883 3.2319ZM4.63806 28.7377C2.80233 26.3765 3.21888 22.9762 5.57086 21.1275L19.1182 10.5424L7.05987 31.8344L4.63806 28.7377ZM38.6125 46.0647C38.402 45.3245 37.9571 44.7652 37.2778 44.3868C36.5985 44.0083 35.8886 43.9243 35.148 44.1347C34.4075 44.345 33.8479 44.7897 33.4693 45.4687C33.0907 46.1476 33.0066 46.8572 33.2171 47.5974C33.4275 48.3376 33.8724 48.8969 34.5517 49.2754C35.231 49.6538 35.941 49.7378 36.6815 49.5275C37.422 49.3171 37.9816 48.8724 38.3602 48.1934C38.7389 47.5145 38.8229 46.8049 38.6125 46.0647ZM42.9699 39.2984C42.89 39.0426 42.7264 38.8569 42.4792 38.7414C41.0591 38.0949 39.5694 37.7127 38.0103 37.5949C36.4511 37.4772 34.922 37.6348 33.4229 38.0678C31.9201 38.4875 30.5366 39.1573 29.2725 40.0771C28.0083 40.997 26.9425 42.1051 26.0748 43.4015L26.0393 43.4652C25.9163 43.6859 25.8867 43.9085 25.9506 44.1332C26.004 44.3966 26.1539 44.5969 26.4001 44.7341L28.1196 45.692C28.3319 45.8103 28.5535 45.842 28.7844 45.7871C29.0154 45.7322 29.1985 45.6034 29.3338 45.4007C30.6044 43.5612 32.3142 42.3362 34.4631 41.7257C36.612 41.1153 38.7107 41.2583 40.7593 42.1549C40.9811 42.2562 41.2046 42.2695 41.4299 42.1948C41.6552 42.1201 41.827 41.9766 41.9453 41.7644L42.9037 40.0458C43.041 39.7997 43.063 39.5505 42.9699 39.2984ZM46.6103 32.8001C46.5352 32.5358 46.3782 32.3482 46.1395 32.2375C43.8532 31.1084 41.4401 30.4315 38.9 30.2066C36.36 29.9818 33.8577 30.223 31.3933 30.9302C28.9252 31.6242 26.6701 32.7345 24.628 34.261C22.5859 35.7875 20.8897 37.6318 19.5394 39.794L19.5181 39.8322C19.395 40.0528 19.3673 40.2821 19.435 40.52C19.4931 40.7749 19.6411 40.9686 19.8789 41.1011L21.7002 42.1157C21.9125 42.234 22.1386 42.2626 22.3785 42.2016C22.6184 42.1406 22.8018 42.0064 22.9286 41.7989C24.0565 40.0357 25.4563 38.5435 27.1278 37.3222C28.7993 36.101 30.5773 35.2227 32.4617 34.6874C34.3461 34.152 36.3205 33.9644 38.3847 34.1244C40.449 34.2844 42.4223 34.822 44.3048 35.7372C44.5218 35.8469 44.7484 35.8647 44.9845 35.7905C45.2207 35.7163 45.4003 35.5688 45.5233 35.3481L46.5385 33.5277C46.671 33.29 46.695 33.0475 46.6103 32.8001Z" fill="white"/>
</svg>
